<svg xmlns="http://www.w3.org/2000/svg" viewBox="0 0 200 200" role="img" aria-label="Fruits and vegetables">
  <circle cx="100" cy="100" r="96" fill="#eaf1fd"/>
  <path d="M100 70c-22 0-38 18-38 44 0 22 16 42 38 42s38-20 38-42c0-26-16-44-38-44z" fill="#2563eb"/>
  <path d="M100 70c-6-10-2-22 10-28-2 12-4 20-2 28z" fill="#15803d"/>
  <ellipse cx="86" cy="96" rx="8" ry="12" fill="#5b9bff" opacity="0.6"/>
  <circle cx="150" cy="118" r="22" fill="#15803d"/>
  <circle cx="150" cy="98" r="6" fill="#0f5c2c"/>
  <circle cx="52" cy="126" r="19" fill="#b45309"/>
  <path d="M52 107c3-6 9-8 14-6-3 5-8 7-14 6z" fill="#15803d"/>
</svg>
